HIERARCHY
ROOT SpineBase
{
  OFFSET 0.000000 0.000000 0.000000
  CHANNELS 6 Xposition Yposition Zposition Zrotation Xrotation Yrotation
  JOINT SpineMid
  {
    OFFSET -0.000000 34.737783 -0.000000
    CHANNELS 3 Zrotation Xrotation Yrotation
    JOINT SpineShoulder
    {
      OFFSET 0.345246 25.835739 -0.763921
      CHANNELS 3 Zrotation Xrotation Yrotation
      JOINT Neck
      {
        OFFSET 0.245168 8.512375 -0.623677
        CHANNELS 3 Zrotation Xrotation Yrotation
        JOINT Head
        {
          OFFSET 2.871610 10.641483 7.204770
          CHANNELS 3 Zrotation Xrotation Yrotation
          End Site
          {
            OFFSET 0 0 0
          }
        }
      }
      JOINT ShoulderLeft
      {
        OFFSET 2.842851 -4.873638 -12.799745
        CHANNELS 3 Zrotation Xrotation Yrotation
        JOINT ElbowLeft
        {
          OFFSET 9.073892 -28.627254 -3.181732
          CHANNELS 3 Zrotation Xrotation Yrotation
          JOINT WristLeft
          {
            OFFSET 5.432970 -20.851951 5.113597
            CHANNELS 3 Zrotation Xrotation Yrotation
            JOINT HandLeft
            {
              OFFSET 0.621077 -8.216372 3.100304
              CHANNELS 3 Zrotation Xrotation Yrotation
              JOINT HandTipLeft
              {
                OFFSET -0.453291 -8.604242 1.153564
                CHANNELS 3 Zrotation Xrotation Yrotation
                End Site
                {
                  OFFSET 0 0 0
                }
              }
              JOINT ThumbLeft
              {
                OFFSET 1.642533 -1.679420 -3.438960
                CHANNELS 3 Zrotation Xrotation Yrotation
                End Site
                {
                  OFFSET 0 0 0
                }
              }
            }
          }
        }
      }
      JOINT ShoulderRight
      {
        OFFSET 11.685166 -9.975725 -12.493623
        CHANNELS 3 Zrotation Xrotation Yrotation
        JOINT ElbowRight
        {
          OFFSET 2.329902 -30.451205 -1.607595
          CHANNELS 3 Zrotation Xrotation Yrotation
          JOINT WristRight
          {
            OFFSET 2.770336 -22.461917 7.874144
            CHANNELS 3 Zrotation Xrotation Yrotation
            JOINT HandRight
            {
              OFFSET 1.222010 -2.578116 -1.129055
              CHANNELS 3 Zrotation Xrotation Yrotation
              JOINT HandTipRight
              {
                OFFSET 0.225068 -5.643253 0.653071
                CHANNELS 3 Zrotation Xrotation Yrotation
                End Site
                {
                  OFFSET 0 0 0
                }
              }
              JOINT ThumbRight
              {
                OFFSET -2.356790 1.353182 0.258634
                CHANNELS 3 Zrotation Xrotation Yrotation
                End Site
                {
                  OFFSET 0 0 0
                }
              }
            }
          }
        }
      }
    }
  }
  JOINT HipLeft
  {
    OFFSET -4.988474 0.502172 -6.362877
    CHANNELS 3 Zrotation Xrotation Yrotation
    JOINT KneeLeft
    {
      OFFSET -0.368250 -35.357478 2.073284
      CHANNELS 3 Zrotation Xrotation Yrotation
      JOINT AnkleLeft
      {
        OFFSET -2.265647 -34.677092 -1.330416
        CHANNELS 3 Zrotation Xrotation Yrotation
        JOINT FootLeft
        {
          OFFSET 3.052455 -6.697212 -0.056875
          CHANNELS 3 Zrotation Xrotation Yrotation
          End Site
          {
            OFFSET 0 0 0
          }
        }
      }
    }
  }
  JOINT HipRight
  {
    OFFSET 7.673772 1.246183 -1.146316
    CHANNELS 3 Zrotation Xrotation Yrotation
    JOINT KneeRight
    {
      OFFSET -8.525968 -30.126353 -5.616788
      CHANNELS 3 Zrotation Xrotation Yrotation
      JOINT AnkleRight
      {
        OFFSET -18.481931 -38.375023 7.289948
        CHANNELS 3 Zrotation Xrotation Yrotation
        JOINT FootRight
        {
          OFFSET 1.557759 -5.658351 -9.099305
          CHANNELS 3 Zrotation Xrotation Yrotation
          End Site
          {
            OFFSET 0 0 0
          }
        }
      }
    }
  }
}
MOTION
Frames: 16
Frame Time: 0.033333
-111.230684 75.742303 313.623566 -0.430554 -0.137125 -21.777486 0.348957 0.287072 21.776097 -0.000000 0.000000 0.000000 -1.756125 0.789469 0.979484 0.000000 0.000000 0.000000 -0.000000 0.000000 0.000000 -0.715791 2.497696 0.494388 -0.548603 8.794624 -0.027771 3.104552 0.009963 -0.421608 0.000000 0.000000 0.000000 0.000000 0.000000 0.000000 1.180853 5.193242 0.280830 0.491035 6.152858 1.640334 -37.825238 -43.374460 -28.406729 14.419143 48.707078 6.284348 0.000000 0.000000 0.000000 0.000000 0.000000 0.000000 1.399243 0.945864 21.834017 -0.348640 0.484539 -0.153148 -2.089792 -6.268710 -2.539014 0.000000 0.000000 0.000000 5.083273 1.703675 20.889304 -19.003774 -11.875194 2.367938 16.322958 -10.554116 -20.334448 0.000000 0.000000 0.000000
-111.161571 75.805260 313.656527 -0.364612 -0.184805 -21.798103 0.269921 0.306981 21.796792 -0.000000 0.000000 0.000000 -1.717488 0.686187 0.980059 0.000000 0.000000 0.000000 -0.000000 0.000000 0.000000 -0.600142 2.015237 0.390720 -0.389232 7.515483 0.019132 1.863441 0.873515 -0.636527 0.000000 0.000000 0.000000 0.000000 0.000000 0.000000 1.675865 5.351537 0.242083 -0.004998 5.997199 1.633186 -42.586076 -45.598830 -32.942005 14.086475 50.928436 7.656525 0.000000 0.000000 0.000000 0.000000 0.000000 0.000000 1.253445 0.971849 21.851226 -0.264167 0.528184 -0.155461 -1.044266 -5.417128 -2.043264 0.000000 0.000000 0.000000 4.429333 2.079038 20.828085 -16.247961 -11.264505 2.583359 13.321634 -12.786323 -19.378902 0.000000 0.000000 0.000000
-111.094465 75.890178 313.684751 -0.296262 -0.226502 -21.772747 0.191115 0.320233 21.771627 -0.000000 0.000000 0.000000 -1.726318 0.597403 1.008984 0.000000 0.000000 0.000000 -0.000000 0.000000 0.000000 -0.462352 1.513901 0.288430 -0.771649 5.852681 -0.146080 1.931747 0.520733 -0.290565 0.000000 0.000000 0.000000 0.000000 0.000000 0.000000 2.349034 5.380109 0.176820 -0.679542 5.971878 1.634021 -49.084327 -47.418016 -38.305289 18.597780 53.185047 5.709023 0.000000 0.000000 0.000000 0.000000 0.000000 0.000000 1.143805 1.011248 21.824474 -0.226849 0.564304 -0.159760 -1.791452 -5.311013 -1.995479 0.000000 0.000000 0.000000 4.070138 2.225490 20.778334 -14.444414 -10.484704 2.650239 8.655098 -16.479932 -14.188004 0.000000 0.000000 0.000000
-110.979218 75.958144 313.762564 -0.174869 -0.320607 -21.709034 0.043878 0.362550 21.708406 -0.000000 0.000000 0.000000 -1.615232 0.438031 0.975371 0.000000 0.000000 0.000000 -0.000000 0.000000 0.000000 -0.325315 0.899719 0.157622 -1.158197 4.195383 -0.291547 1.855819 1.371477 -0.032910 0.000000 0.000000 0.000000 0.000000 0.000000 0.000000 3.020619 5.242570 0.103121 -1.353692 6.111783 1.646678 -54.813796 -48.523671 -42.977900 21.368300 54.226126 4.492813 0.000000 0.000000 0.000000 0.000000 0.000000 0.000000 0.891235 1.130742 21.756031 -0.165429 0.541939 -0.159845 -2.488015 -5.607609 -2.128525 0.000000 0.000000 0.000000 4.126069 2.089465 20.757699 -15.184039 -9.962058 2.382634 7.422984 -18.686268 -10.991757 0.000000 0.000000 0.000000
-110.864792 76.030486 313.795568 -0.071900 -0.387940 -21.549289 -0.075617 0.387233 21.549301 -0.000000 0.000000 0.000000 -1.432978 0.358768 0.873100 0.000000 0.000000 0.000000 -0.000000 0.000000 0.000000 -0.000000 0.000000 0.000000 -1.595181 4.374259 -0.213517 1.704941 0.186666 0.113622 0.000000 0.000000 0.000000 0.000000 0.000000 0.000000 3.466828 5.054228 0.050594 -1.801947 6.300432 1.663711 -59.830476 -49.895603 -48.440940 22.424838 56.021085 4.669458 0.000000 0.000000 0.000000 0.000000 0.000000 0.000000 0.723979 1.228319 21.594677 -0.172709 0.511071 -0.160377 -3.357244 -5.860342 -2.274200 0.000000 0.000000 0.000000 3.888724 2.113185 20.604939 -14.978707 -9.949143 2.369509 9.154168 -18.202618 -15.045459 0.000000 0.000000 0.000000
-110.762589 76.121570 313.796891 0.010098 -0.425454 -21.413474 -0.164735 0.392397 21.414076 -0.000000 0.000000 0.000000 -1.353067 0.356219 0.819859 0.000000 0.000000 0.000000 -0.000000 0.000000 0.000000 -0.000000 0.000000 0.000000 -2.012370 3.932780 -0.398607 1.729519 -0.722051 0.317417 0.000000 0.000000 0.000000 0.000000 0.000000 0.000000 3.689817 4.640247 0.010772 -2.028742 6.712655 1.698337 -66.633960 -51.300341 -56.105548 24.888257 60.000090 4.152010 0.000000 0.000000 0.000000 0.000000 0.000000 0.000000 0.644140 1.274329 21.459887 -0.255466 0.507572 -0.161315 -2.785057 -6.067989 -2.327416 0.000000 0.000000 0.000000 3.376391 2.242934 20.461584 -13.655421 -9.898401 2.478549 13.540816 -14.920788 -23.880939 0.000000 0.000000 0.000000
-110.681182 76.193370 313.777106 0.066452 -0.445624 -21.297538 -0.223774 0.391053 21.298560 -0.000000 0.000000 0.000000 -1.374791 0.405343 0.821680 0.000000 0.000000 0.000000 -0.187559 -0.838559 -0.246655 0.196364 -0.147997 -0.010859 -2.369586 4.176853 -0.287106 2.820765 -0.035560 0.625887 0.000000 0.000000 0.000000 0.000000 0.000000 0.000000 3.614025 4.334815 0.004128 -1.954842 7.015688 1.721848 -72.077683 -52.716334 -63.928679 23.600751 65.745750 6.690538 0.000000 0.000000 0.000000 0.000000 0.000000 0.000000 0.638895 1.326542 21.346886 -0.440527 0.463512 -0.159936 -0.840150 -5.745493 -2.075049 0.000000 0.000000 0.000000 3.349806 2.124818 20.383549 -14.170134 -10.045952 2.419824 16.397414 -13.242241 -27.539753 0.000000 0.000000 0.000000
-110.621664 76.265475 313.731076 0.093770 -0.439164 -21.156952 -0.245959 0.375717 21.158118 -0.000000 0.000000 0.000000 -1.440798 0.471297 0.849023 0.000000 0.000000 0.000000 -0.241826 -1.026574 -0.301188 0.270318 -0.382296 -0.063135 -2.618033 4.787411 -0.216488 2.731947 -0.316783 0.659623 0.000000 0.000000 0.000000 0.000000 0.000000 0.000000 3.204859 4.270589 0.037988 -1.543378 7.077225 1.721433 -74.222853 -54.187996 -69.458205 14.435673 67.568076 15.337256 0.000000 0.000000 0.000000 0.000000 0.000000 0.000000 0.654615 1.302533 21.208192 -0.550118 0.452458 -0.157010 -0.551713 -5.744626 -2.080382 0.000000 0.000000 0.000000 3.102969 2.161706 20.244287 -13.719453 -10.336489 2.526252 18.191642 -11.293072 -30.098593 0.000000 0.000000 0.000000
-110.573329 76.329612 313.669941 0.102123 -0.415403 -21.103354 -0.244845 0.350772 21.104474 -0.000000 0.000000 0.000000 -1.563718 0.555177 0.910178 0.000000 0.000000 0.000000 -0.288674 -1.167950 -0.341731 0.268263 -0.484700 -0.099215 -2.745541 6.105321 -0.074306 3.066403 -0.906700 0.677234 0.000000 0.000000 0.000000 0.000000 0.000000 0.000000 2.697012 4.206578 0.080224 -1.033399 7.138101 1.718840 -75.352736 -55.256017 -73.162962 8.119515 68.696028 21.379385 0.000000 0.000000 0.000000 0.000000 0.000000 0.000000 0.770196 1.280321 21.159972 -0.826349 0.411504 -0.152242 -1.315996 -6.023010 -2.310302 0.000000 0.000000 0.000000 2.894671 2.205384 20.186783 -13.293044 -10.653208 2.645616 18.584089 -10.421701 -30.864234 0.000000 0.000000 0.000000
-110.538637 76.370447 313.619566 0.087233 -0.400209 -21.065946 -0.225259 0.342106 21.066923 -0.000000 0.000000 0.000000 -1.631634 0.678272 0.924115 0.000000 0.000000 0.000000 -0.363142 -1.395878 -0.407491 0.274488 -0.309010 -0.065880 -3.139419 7.548188 -0.036374 4.408652 -2.288025 0.987744 0.000000 0.000000 0.000000 0.000000 0.000000 0.000000 2.386408 4.672401 0.133819 -0.172367 6.964668 1.903869 -77.706471 -55.180485 -75.546857 12.073675 73.857981 18.605180 0.000000 0.000000 0.000000 0.000000 0.000000 0.000000 0.699575 1.170850 21.118209 -0.643261 0.495640 -0.149192 -4.357002 -6.773844 -2.855182 0.000000 0.000000 0.000000 2.790015 2.245798 20.143624 -13.040886 -10.893223 2.735526 17.818066 -10.386849 -29.912728 0.000000 0.000000 0.000000
-110.525202 76.380163 313.582775 0.057540 -0.386602 -21.145541 -0.193130 0.339813 21.146308 -0.000000 0.000000 0.000000 -1.655932 0.686022 0.938523 0.000000 0.000000 0.000000 -0.393184 -1.515000 -0.442862 0.172179 -0.039868 -0.023133 -3.260775 9.086567 0.055237 4.998759 -2.893151 1.059337 0.000000 0.000000 0.000000 0.000000 0.000000 0.000000 2.100086 4.601141 0.156424 -0.156518 6.906637 1.797649 -75.546339 -54.717518 -72.083893 13.738916 67.379303 16.095217 0.000000 0.000000 0.000000 0.000000 0.000000 0.000000 0.523549 0.982545 21.187286 -0.173903 0.675528 -0.148307 -5.095914 -7.230545 -3.077279 0.000000 0.000000 0.000000 2.848066 2.278509 20.209187 -13.090954 -11.007577 2.774354 15.648404 -11.678893 -26.930241 0.000000 0.000000 0.000000
-110.518730 76.399017 313.533002 0.022407 -0.347865 -21.288911 -0.147179 0.315992 21.289384 -0.000000 0.000000 0.000000 -1.829420 0.628789 1.070444 0.000000 0.000000 0.000000 -0.329039 -1.460373 -0.431540 0.009011 0.198982 0.021777 -3.325405 11.251504 0.209916 6.596169 -4.310876 1.387683 0.000000 0.000000 0.000000 0.000000 0.000000 0.000000 1.864050 3.712974 0.124978 -0.735266 7.703198 1.572281 -67.913863 -54.518525 -64.050067 13.365421 59.400902 14.435924 0.000000 0.000000 0.000000 0.000000 0.000000 0.000000 -0.147179 0.315992 21.289384 0.949299 1.103545 -0.117687 -4.595578 -7.336217 -3.024483 0.000000 0.000000 0.000000 2.758010 2.435234 20.304098 -12.465990 -11.112705 2.906057 11.129026 -15.128123 -21.669859 0.000000 0.000000 0.000000
-110.541921 76.368656 313.511655 -0.042800 -0.322226 -21.822190 -0.080047 0.315046 21.822290 -0.000000 0.000000 0.000000 -1.616643 0.585211 0.938113 0.000000 0.000000 0.000000 -0.191956 -1.267228 -0.383147 -0.230611 0.387862 0.053572 -3.448377 13.289386 0.322045 8.026310 -6.418868 1.843992 0.000000 0.000000 0.000000 0.000000 0.000000 0.000000 1.568255 2.652470 0.083687 -1.458321 8.053313 1.237954 -55.056160 -52.533734 -50.025878 14.944225 50.353004 10.267271 0.000000 0.000000 0.000000 0.000000 0.000000 0.000000 -0.080047 0.315046 21.822290 1.244922 1.205613 -0.139678 -4.420143 -7.930468 -3.220577 0.000000 0.000000 0.000000 2.899735 2.447193 20.832860 -12.649530 -11.166633 2.923601 6.266126 -18.959913 -13.641373 0.000000 0.000000 0.000000
-110.637228 76.317564 313.593050 -0.065045 -0.352654 -21.878224 -0.071052 0.351493 21.878242 -0.000000 0.000000 0.000000 -1.086802 0.351251 0.641403 0.000000 0.000000 0.000000 -0.063257 -1.007105 -0.313112 0.057762 1.007435 0.312049 -3.975758 14.787078 0.146909 10.007386 -6.643206 2.398900 0.000000 0.000000 0.000000 0.000000 0.000000 0.000000 1.056913 1.669751 0.056482 -1.690024 8.043517 0.953309 -38.423122 -46.125258 -31.487473 11.741825 35.251300 7.413312 0.000000 0.000000 0.000000 0.000000 0.000000 0.000000 -0.071052 0.351493 21.878242 1.662172 1.327174 -0.169829 -2.967363 -8.680508 -3.343764 0.000000 0.000000 0.000000 3.064985 2.484304 20.872494 -13.812088 -12.138155 3.021213 5.095520 -19.621357 -10.037658 0.000000 0.000000 0.000000
-110.840314 76.271723 313.708327 -0.091979 -0.394887 -21.503030 -0.059169 0.401117 21.502921 -0.000000 0.000000 0.000000 -0.000000 0.000000 0.000000 0.000000 0.000000 0.000000 -0.000000 0.000000 0.000000 -0.000000 0.000000 0.000000 -3.827346 16.399024 0.376542 10.562802 -6.610797 2.485171 0.000000 0.000000 0.000000 0.000000 0.000000 0.000000 0.562010 1.061461 0.046301 -1.379982 8.177767 0.873122 -29.182057 -40.158729 -21.703566 8.033765 27.076590 6.063285 0.000000 0.000000 0.000000 0.000000 0.000000 0.000000 -0.059169 0.401117 21.502921 2.136965 1.470109 -0.205621 -3.771966 -8.912718 -3.400170 0.000000 0.000000 0.000000 3.488377 2.283332 20.539314 -14.469590 -11.543605 2.851496 4.726780 -20.305272 -8.157341 0.000000 0.000000 0.000000
-111.116511 76.214595 313.863536 -0.119748 -0.452440 -20.880473 -0.049375 0.465406 20.880201 -0.000000 0.000000 0.000000 0.718575 -0.000321 -0.487248 0.000000 0.000000 0.000000 0.728372 -0.339890 -0.186215 -0.729486 0.337494 0.190524 -3.484145 17.804323 0.626020 10.612577 -6.202329 2.337284 0.000000 0.000000 0.000000 0.000000 0.000000 0.000000 -0.000000 0.000000 0.000000 -0.830960 8.769265 0.880523 -20.375995 -32.294976 -13.179451 2.950339 19.178872 4.489098 0.000000 0.000000 0.000000 0.000000 0.000000 0.000000 -0.049375 0.465406 20.880201 2.684957 1.626874 -0.247702 -5.107714 -9.002439 -3.427882 0.000000 0.000000 0.000000 4.038184 1.977254 19.983250 -15.242083 -10.604086 2.613434 5.471552 -20.129175 -8.100933 0.000000 0.000000 0.000000
